<mxfile host="app.diagrams.net" modified="2021-10-12T19:43:46.667Z" agent="5.0 (Windows NT 10.0; Win64; x64) AppleWebKit/537.36 (KHTML, like Gecko) Chrome/94.0.4606.71 Safari/537.36 Edg/94.0.992.38" etag="qj31M5A1hXJlXgOHYTc9" version="15.5.1" type="github" pages="2">
  <diagram id="C5RBs43oDa-KdzZeNtuy" name="Page-1">
    <mxGraphModel dx="1406" dy="794" grid="1" gridSize="10" guides="1" tooltips="1" connect="1" arrows="1" fold="1" page="1" pageScale="1" pageWidth="827" pageHeight="1169" math="0" shadow="0">
      <root>
        <mxCell id="WIyWlLk6GJQsqaUBKTNV-0" />
        <mxCell id="WIyWlLk6GJQsqaUBKTNV-1" parent="WIyWlLk6GJQsqaUBKTNV-0" />
        <mxCell id="ex8yVLFD1z92IxYL_h4M-0" value="UI" style="rounded=1;whiteSpace=wrap;html=1;" parent="WIyWlLk6GJQsqaUBKTNV-1" vertex="1">
          <mxGeometry x="20" y="290" width="60" height="50" as="geometry" />
        </mxCell>
        <mxCell id="ex8yVLFD1z92IxYL_h4M-1" value="UI Service" style="rounded=0;whiteSpace=wrap;html=1;" parent="WIyWlLk6GJQsqaUBKTNV-1" vertex="1">
          <mxGeometry x="160" y="270" width="120" height="40" as="geometry" />
        </mxCell>
        <mxCell id="ex8yVLFD1z92IxYL_h4M-2" value="Order Service" style="rounded=0;whiteSpace=wrap;html=1;" parent="WIyWlLk6GJQsqaUBKTNV-1" vertex="1">
          <mxGeometry x="350" y="270" width="120" height="40" as="geometry" />
        </mxCell>
        <mxCell id="ex8yVLFD1z92IxYL_h4M-3" value="Return Service" style="rounded=0;whiteSpace=wrap;html=1;" parent="WIyWlLk6GJQsqaUBKTNV-1" vertex="1">
          <mxGeometry x="530" y="270" width="120" height="40" as="geometry" />
        </mxCell>
        <mxCell id="ex8yVLFD1z92IxYL_h4M-4" value="Payment Service" style="rounded=0;whiteSpace=wrap;html=1;" parent="WIyWlLk6GJQsqaUBKTNV-1" vertex="1">
          <mxGeometry x="160" y="360" width="120" height="40" as="geometry" />
        </mxCell>
        <mxCell id="ex8yVLFD1z92IxYL_h4M-5" value="Fulfillment Service" style="rounded=0;whiteSpace=wrap;html=1;" parent="WIyWlLk6GJQsqaUBKTNV-1" vertex="1">
          <mxGeometry x="350" y="360" width="120" height="40" as="geometry" />
        </mxCell>
        <mxCell id="ex8yVLFD1z92IxYL_h4M-6" value="Stock Service" style="rounded=0;whiteSpace=wrap;html=1;" parent="WIyWlLk6GJQsqaUBKTNV-1" vertex="1">
          <mxGeometry x="530" y="360" width="120" height="40" as="geometry" />
        </mxCell>
        <mxCell id="ex8yVLFD1z92IxYL_h4M-7" value="" style="endArrow=classic;html=1;rounded=0;entryX=0;entryY=0.5;entryDx=0;entryDy=0;" parent="WIyWlLk6GJQsqaUBKTNV-1" target="ex8yVLFD1z92IxYL_h4M-1" edge="1">
          <mxGeometry width="50" height="50" relative="1" as="geometry">
            <mxPoint x="80" y="315" as="sourcePoint" />
            <mxPoint x="130" y="265" as="targetPoint" />
          </mxGeometry>
        </mxCell>
        <mxCell id="ex8yVLFD1z92IxYL_h4M-8" value="" style="endArrow=classic;html=1;rounded=0;entryX=1;entryY=0.75;entryDx=0;entryDy=0;exitX=0;exitY=0.75;exitDx=0;exitDy=0;" parent="WIyWlLk6GJQsqaUBKTNV-1" source="ex8yVLFD1z92IxYL_h4M-1" target="ex8yVLFD1z92IxYL_h4M-0" edge="1">
          <mxGeometry width="50" height="50" relative="1" as="geometry">
            <mxPoint x="160" y="280" as="sourcePoint" />
            <mxPoint x="170" y="310" as="targetPoint" />
          </mxGeometry>
        </mxCell>
        <mxCell id="ex8yVLFD1z92IxYL_h4M-9" value="" style="endArrow=classic;html=1;rounded=0;entryX=1;entryY=0.75;entryDx=0;entryDy=0;exitX=0;exitY=0.75;exitDx=0;exitDy=0;" parent="WIyWlLk6GJQsqaUBKTNV-1" target="ex8yVLFD1z92IxYL_h4M-1" edge="1">
          <mxGeometry width="50" height="50" relative="1" as="geometry">
            <mxPoint x="350" y="300" as="sourcePoint" />
            <mxPoint x="270" y="327.5" as="targetPoint" />
          </mxGeometry>
        </mxCell>
        <mxCell id="ex8yVLFD1z92IxYL_h4M-10" value="" style="endArrow=classic;html=1;rounded=0;exitX=1;exitY=0.5;exitDx=0;exitDy=0;" parent="WIyWlLk6GJQsqaUBKTNV-1" source="ex8yVLFD1z92IxYL_h4M-1" edge="1">
          <mxGeometry width="50" height="50" relative="1" as="geometry">
            <mxPoint x="420" y="260" as="sourcePoint" />
            <mxPoint x="350" y="288" as="targetPoint" />
          </mxGeometry>
        </mxCell>
        <mxCell id="ex8yVLFD1z92IxYL_h4M-11" value="" style="endArrow=classic;html=1;rounded=0;exitX=0;exitY=0.75;exitDx=0;exitDy=0;" parent="WIyWlLk6GJQsqaUBKTNV-1" edge="1">
          <mxGeometry width="50" height="50" relative="1" as="geometry">
            <mxPoint x="530" y="370" as="sourcePoint" />
            <mxPoint x="470" y="370" as="targetPoint" />
          </mxGeometry>
        </mxCell>
        <mxCell id="ex8yVLFD1z92IxYL_h4M-12" value="" style="endArrow=classic;html=1;rounded=0;entryX=0;entryY=0.25;entryDx=0;entryDy=0;exitX=0;exitY=0.75;exitDx=0;exitDy=0;" parent="WIyWlLk6GJQsqaUBKTNV-1" target="ex8yVLFD1z92IxYL_h4M-3" edge="1">
          <mxGeometry width="50" height="50" relative="1" as="geometry">
            <mxPoint x="470" y="282.5" as="sourcePoint" />
            <mxPoint x="390" y="310" as="targetPoint" />
          </mxGeometry>
        </mxCell>
        <mxCell id="ex8yVLFD1z92IxYL_h4M-16" value="" style="endArrow=classic;html=1;rounded=0;exitX=1;exitY=0.5;exitDx=0;exitDy=0;" parent="WIyWlLk6GJQsqaUBKTNV-1" edge="1">
          <mxGeometry width="50" height="50" relative="1" as="geometry">
            <mxPoint x="280" y="372" as="sourcePoint" />
            <mxPoint x="350" y="370" as="targetPoint" />
          </mxGeometry>
        </mxCell>
        <mxCell id="ex8yVLFD1z92IxYL_h4M-17" value="" style="endArrow=classic;html=1;rounded=0;entryX=1;entryY=0.75;entryDx=0;entryDy=0;exitX=0;exitY=0.75;exitDx=0;exitDy=0;" parent="WIyWlLk6GJQsqaUBKTNV-1" edge="1">
          <mxGeometry width="50" height="50" relative="1" as="geometry">
            <mxPoint x="350" y="390" as="sourcePoint" />
            <mxPoint x="280" y="390" as="targetPoint" />
          </mxGeometry>
        </mxCell>
        <mxCell id="ex8yVLFD1z92IxYL_h4M-19" value="" style="endArrow=classic;html=1;rounded=0;" parent="WIyWlLk6GJQsqaUBKTNV-1" edge="1">
          <mxGeometry width="50" height="50" relative="1" as="geometry">
            <mxPoint x="470" y="380" as="sourcePoint" />
            <mxPoint x="530" y="380" as="targetPoint" />
          </mxGeometry>
        </mxCell>
        <mxCell id="ex8yVLFD1z92IxYL_h4M-20" value="" style="endArrow=classic;html=1;rounded=0;exitX=0;exitY=0.75;exitDx=0;exitDy=0;" parent="WIyWlLk6GJQsqaUBKTNV-1" edge="1">
          <mxGeometry width="50" height="50" relative="1" as="geometry">
            <mxPoint x="530" y="300" as="sourcePoint" />
            <mxPoint x="470" y="300" as="targetPoint" />
          </mxGeometry>
        </mxCell>
        <mxCell id="ex8yVLFD1z92IxYL_h4M-21" value="" style="endArrow=classic;html=1;rounded=0;exitX=0.5;exitY=0;exitDx=0;exitDy=0;entryX=0.5;entryY=1;entryDx=0;entryDy=0;" parent="WIyWlLk6GJQsqaUBKTNV-1" source="ex8yVLFD1z92IxYL_h4M-6" target="ex8yVLFD1z92IxYL_h4M-3" edge="1">
          <mxGeometry width="50" height="50" relative="1" as="geometry">
            <mxPoint x="600" y="340" as="sourcePoint" />
            <mxPoint x="540" y="340" as="targetPoint" />
          </mxGeometry>
        </mxCell>
        <mxCell id="ex8yVLFD1z92IxYL_h4M-23" value="" style="endArrow=classic;html=1;rounded=0;exitX=0.25;exitY=1;exitDx=0;exitDy=0;entryX=0.25;entryY=0;entryDx=0;entryDy=0;" parent="WIyWlLk6GJQsqaUBKTNV-1" source="ex8yVLFD1z92IxYL_h4M-3" target="ex8yVLFD1z92IxYL_h4M-6" edge="1">
          <mxGeometry width="50" height="50" relative="1" as="geometry">
            <mxPoint x="480" y="390" as="sourcePoint" />
            <mxPoint x="540" y="390" as="targetPoint" />
          </mxGeometry>
        </mxCell>
        <mxCell id="ex8yVLFD1z92IxYL_h4M-24" value="" style="endArrow=classic;html=1;rounded=0;exitX=0.25;exitY=1;exitDx=0;exitDy=0;entryX=0.25;entryY=0;entryDx=0;entryDy=0;" parent="WIyWlLk6GJQsqaUBKTNV-1" edge="1">
          <mxGeometry width="50" height="50" relative="1" as="geometry">
            <mxPoint x="203" y="312" as="sourcePoint" />
            <mxPoint x="203" y="362" as="targetPoint" />
          </mxGeometry>
        </mxCell>
        <mxCell id="ex8yVLFD1z92IxYL_h4M-27" value="" style="endArrow=classic;html=1;rounded=0;exitX=0.5;exitY=0;exitDx=0;exitDy=0;entryX=0.5;entryY=1;entryDx=0;entryDy=0;" parent="WIyWlLk6GJQsqaUBKTNV-1" source="ex8yVLFD1z92IxYL_h4M-4" target="ex8yVLFD1z92IxYL_h4M-1" edge="1">
          <mxGeometry width="50" height="50" relative="1" as="geometry">
            <mxPoint x="216" y="316" as="sourcePoint" />
            <mxPoint x="210" y="310" as="targetPoint" />
          </mxGeometry>
        </mxCell>
        <mxCell id="ex8yVLFD1z92IxYL_h4M-28" value="" style="endArrow=classic;startArrow=classic;html=1;rounded=0;entryX=0.167;entryY=1.05;entryDx=0;entryDy=0;entryPerimeter=0;" parent="WIyWlLk6GJQsqaUBKTNV-1" target="ex8yVLFD1z92IxYL_h4M-2" edge="1">
          <mxGeometry width="50" height="50" relative="1" as="geometry">
            <mxPoint x="250" y="360" as="sourcePoint" />
            <mxPoint x="300" y="310" as="targetPoint" />
          </mxGeometry>
        </mxCell>
        <mxCell id="ex8yVLFD1z92IxYL_h4M-29" value="" style="endArrow=classic;startArrow=classic;html=1;rounded=0;entryX=0.075;entryY=1;entryDx=0;entryDy=0;entryPerimeter=0;" parent="WIyWlLk6GJQsqaUBKTNV-1" target="ex8yVLFD1z92IxYL_h4M-3" edge="1">
          <mxGeometry width="50" height="50" relative="1" as="geometry">
            <mxPoint x="260" y="370" as="sourcePoint" />
            <mxPoint x="380.03999999999996" y="322" as="targetPoint" />
          </mxGeometry>
        </mxCell>
        <mxCell id="ex8yVLFD1z92IxYL_h4M-30" value="" style="endArrow=classic;startArrow=classic;html=1;rounded=0;entryX=0.625;entryY=0.975;entryDx=0;entryDy=0;entryPerimeter=0;" parent="WIyWlLk6GJQsqaUBKTNV-1" source="ex8yVLFD1z92IxYL_h4M-6" target="ex8yVLFD1z92IxYL_h4M-2" edge="1">
          <mxGeometry width="50" height="50" relative="1" as="geometry">
            <mxPoint x="390" y="430" as="sourcePoint" />
            <mxPoint x="440" y="380" as="targetPoint" />
          </mxGeometry>
        </mxCell>
        <mxCell id="ex8yVLFD1z92IxYL_h4M-31" value="" style="endArrow=classic;startArrow=classic;html=1;rounded=0;entryX=0.25;entryY=0;entryDx=0;entryDy=0;" parent="WIyWlLk6GJQsqaUBKTNV-1" target="ex8yVLFD1z92IxYL_h4M-3" edge="1">
          <mxGeometry width="50" height="50" relative="1" as="geometry">
            <mxPoint x="240" y="270" as="sourcePoint" />
            <mxPoint x="290" y="220" as="targetPoint" />
            <Array as="points">
              <mxPoint x="410" y="220" />
            </Array>
          </mxGeometry>
        </mxCell>
        <mxCell id="ex8yVLFD1z92IxYL_h4M-32" value="Create Account" style="rounded=0;whiteSpace=wrap;html=1;" parent="WIyWlLk6GJQsqaUBKTNV-1" vertex="1">
          <mxGeometry x="10" y="575" width="120" height="20" as="geometry" />
        </mxCell>
        <mxCell id="ex8yVLFD1z92IxYL_h4M-33" value="Diposit / Withdraw&lt;span style=&quot;color: rgba(0 , 0 , 0 , 0) ; font-family: monospace ; font-size: 0px&quot;&gt;%3CmxGraphModel%3E%3Croot%3E%3CmxCell%20id%3D%220%22%2F%3E%3CmxCell%20id%3D%221%22%20parent%3D%220%22%2F%3E%3CmxCell%20id%3D%222%22%20value%3D%22Create%20Account%22%20style%3D%22rounded%3D0%3BwhiteSpace%3Dwrap%3Bhtml%3D1%3B%22%20vertex%3D%221%22%20parent%3D%221%22%3E%3CmxGeometry%20x%3D%2250%22%20y%3D%22570%22%20width%3D%22120%22%20height%3D%2220%22%20as%3D%22geometry%22%2F%3E%3C%2FmxCell%3E%3C%2Froot%3E%3C%2FmxGraphModel%3E&lt;/span&gt;" style="rounded=0;whiteSpace=wrap;html=1;" parent="WIyWlLk6GJQsqaUBKTNV-1" vertex="1">
          <mxGeometry x="150" y="575" width="120" height="20" as="geometry" />
        </mxCell>
        <mxCell id="ex8yVLFD1z92IxYL_h4M-34" value="View Wallet" style="rounded=0;whiteSpace=wrap;html=1;" parent="WIyWlLk6GJQsqaUBKTNV-1" vertex="1">
          <mxGeometry x="280" y="575" width="120" height="20" as="geometry" />
        </mxCell>
        <mxCell id="ex8yVLFD1z92IxYL_h4M-35" value="View Exchange Rates" style="rounded=0;whiteSpace=wrap;html=1;" parent="WIyWlLk6GJQsqaUBKTNV-1" vertex="1">
          <mxGeometry x="420" y="575" width="130" height="20" as="geometry" />
        </mxCell>
        <mxCell id="ex8yVLFD1z92IxYL_h4M-37" value="View Transactions" style="rounded=0;whiteSpace=wrap;html=1;" parent="WIyWlLk6GJQsqaUBKTNV-1" vertex="1">
          <mxGeometry x="570" y="575" width="110" height="20" as="geometry" />
        </mxCell>
        <mxCell id="ex8yVLFD1z92IxYL_h4M-38" value="Exchange Currencies" style="rounded=0;whiteSpace=wrap;html=1;" parent="WIyWlLk6GJQsqaUBKTNV-1" vertex="1">
          <mxGeometry x="697" y="575" width="130" height="20" as="geometry" />
        </mxCell>
        <mxCell id="ex8yVLFD1z92IxYL_h4M-39" value="" style="strokeWidth=2;html=1;shape=mxgraph.flowchart.annotation_2;align=left;labelPosition=right;pointerEvents=1;rotation=-90;" parent="WIyWlLk6GJQsqaUBKTNV-1" vertex="1">
          <mxGeometry x="390" y="300" width="66" height="660" as="geometry" />
        </mxCell>
        <mxCell id="ex8yVLFD1z92IxYL_h4M-41" value="" style="endArrow=none;html=1;rounded=0;" parent="WIyWlLk6GJQsqaUBKTNV-1" edge="1">
          <mxGeometry width="50" height="50" relative="1" as="geometry">
            <mxPoint x="210" y="630" as="sourcePoint" />
            <mxPoint x="210" y="595" as="targetPoint" />
          </mxGeometry>
        </mxCell>
        <mxCell id="ex8yVLFD1z92IxYL_h4M-42" value="" style="endArrow=none;html=1;rounded=0;" parent="WIyWlLk6GJQsqaUBKTNV-1" edge="1">
          <mxGeometry width="50" height="50" relative="1" as="geometry">
            <mxPoint x="339" y="629" as="sourcePoint" />
            <mxPoint x="339" y="594" as="targetPoint" />
            <Array as="points">
              <mxPoint x="339" y="609" />
            </Array>
          </mxGeometry>
        </mxCell>
        <mxCell id="ex8yVLFD1z92IxYL_h4M-44" value="" style="endArrow=none;html=1;rounded=0;" parent="WIyWlLk6GJQsqaUBKTNV-1" edge="1">
          <mxGeometry width="50" height="50" relative="1" as="geometry">
            <mxPoint x="478" y="630" as="sourcePoint" />
            <mxPoint x="478" y="595" as="targetPoint" />
            <Array as="points">
              <mxPoint x="478" y="610" />
            </Array>
          </mxGeometry>
        </mxCell>
        <mxCell id="ex8yVLFD1z92IxYL_h4M-45" value="" style="endArrow=none;html=1;rounded=0;" parent="WIyWlLk6GJQsqaUBKTNV-1" edge="1">
          <mxGeometry width="50" height="50" relative="1" as="geometry">
            <mxPoint x="628" y="630" as="sourcePoint" />
            <mxPoint x="628" y="595" as="targetPoint" />
            <Array as="points">
              <mxPoint x="628" y="610" />
            </Array>
          </mxGeometry>
        </mxCell>
        <mxCell id="ex8yVLFD1z92IxYL_h4M-46" value="" style="swimlane;startSize=0;" parent="WIyWlLk6GJQsqaUBKTNV-1" vertex="1">
          <mxGeometry x="384.5" y="660" width="85.5" height="50" as="geometry" />
        </mxCell>
        <mxCell id="ex8yVLFD1z92IxYL_h4M-47" value="User Interface" style="text;html=1;align=center;verticalAlign=middle;resizable=0;points=[];autosize=1;strokeColor=none;fillColor=none;" parent="WIyWlLk6GJQsqaUBKTNV-1" vertex="1">
          <mxGeometry x="385" y="670" width="90" height="20" as="geometry" />
        </mxCell>
        <mxCell id="ex8yVLFD1z92IxYL_h4M-48" value="User Service" style="rounded=0;whiteSpace=wrap;html=1;" parent="WIyWlLk6GJQsqaUBKTNV-1" vertex="1">
          <mxGeometry x="60" y="760" width="120" height="40" as="geometry" />
        </mxCell>
        <mxCell id="ex8yVLFD1z92IxYL_h4M-49" value="Wallet Service" style="rounded=0;whiteSpace=wrap;html=1;" parent="WIyWlLk6GJQsqaUBKTNV-1" vertex="1">
          <mxGeometry x="270" y="760" width="120" height="40" as="geometry" />
        </mxCell>
        <mxCell id="ex8yVLFD1z92IxYL_h4M-50" value="Transaction Service" style="rounded=0;whiteSpace=wrap;html=1;" parent="WIyWlLk6GJQsqaUBKTNV-1" vertex="1">
          <mxGeometry x="470" y="760" width="120" height="40" as="geometry" />
        </mxCell>
        <mxCell id="ex8yVLFD1z92IxYL_h4M-51" value="Rate Service" style="rounded=0;whiteSpace=wrap;html=1;" parent="WIyWlLk6GJQsqaUBKTNV-1" vertex="1">
          <mxGeometry x="670" y="760" width="120" height="40" as="geometry" />
        </mxCell>
        <mxCell id="ex8yVLFD1z92IxYL_h4M-52" value="" style="strokeWidth=2;html=1;shape=mxgraph.flowchart.annotation_2;align=left;labelPosition=right;pointerEvents=1;rotation=90;" parent="WIyWlLk6GJQsqaUBKTNV-1" vertex="1">
          <mxGeometry x="400" y="470" width="50" height="530" as="geometry" />
        </mxCell>
        <mxCell id="ex8yVLFD1z92IxYL_h4M-53" value="" style="endArrow=none;html=1;rounded=0;" parent="WIyWlLk6GJQsqaUBKTNV-1" edge="1">
          <mxGeometry width="50" height="50" relative="1" as="geometry">
            <mxPoint x="322" y="760" as="sourcePoint" />
            <mxPoint x="322" y="732" as="targetPoint" />
          </mxGeometry>
        </mxCell>
        <mxCell id="ex8yVLFD1z92IxYL_h4M-54" value="" style="endArrow=none;html=1;rounded=0;" parent="WIyWlLk6GJQsqaUBKTNV-1" edge="1">
          <mxGeometry width="50" height="50" relative="1" as="geometry">
            <mxPoint x="522" y="763" as="sourcePoint" />
            <mxPoint x="522" y="735" as="targetPoint" />
          </mxGeometry>
        </mxCell>
        <mxCell id="ex8yVLFD1z92IxYL_h4M-56" style="edgeStyle=orthogonalEdgeStyle;rounded=0;orthogonalLoop=1;jettySize=auto;html=1;entryX=-0.05;entryY=0.723;entryDx=0;entryDy=0;entryPerimeter=0;" parent="WIyWlLk6GJQsqaUBKTNV-1" source="ex8yVLFD1z92IxYL_h4M-55" target="ex8yVLFD1z92IxYL_h4M-57" edge="1">
          <mxGeometry relative="1" as="geometry">
            <mxPoint x="310" y="905" as="targetPoint" />
          </mxGeometry>
        </mxCell>
        <mxCell id="ex8yVLFD1z92IxYL_h4M-55" value="legacy Account Store" style="shape=internalStorage;whiteSpace=wrap;html=1;dx=15;dy=15;rounded=1;arcSize=8;strokeWidth=2;" parent="WIyWlLk6GJQsqaUBKTNV-1" vertex="1">
          <mxGeometry x="60" y="870" width="70" height="70" as="geometry" />
        </mxCell>
        <mxCell id="ex8yVLFD1z92IxYL_h4M-58" style="edgeStyle=orthogonalEdgeStyle;rounded=0;orthogonalLoop=1;jettySize=auto;html=1;entryX=1;entryY=0.25;entryDx=0;entryDy=0;" parent="WIyWlLk6GJQsqaUBKTNV-1" source="ex8yVLFD1z92IxYL_h4M-57" target="ex8yVLFD1z92IxYL_h4M-55" edge="1">
          <mxGeometry relative="1" as="geometry" />
        </mxCell>
        <mxCell id="ex8yVLFD1z92IxYL_h4M-57" value="Confluent" style="rounded=1;whiteSpace=wrap;html=1;" parent="WIyWlLk6GJQsqaUBKTNV-1" vertex="1">
          <mxGeometry x="363" y="875" width="177" height="65" as="geometry" />
        </mxCell>
        <mxCell id="ex8yVLFD1z92IxYL_h4M-62" style="edgeStyle=orthogonalEdgeStyle;rounded=0;orthogonalLoop=1;jettySize=auto;html=1;exitX=1;exitY=0;exitDx=0;exitDy=0;exitPerimeter=0;entryX=0.75;entryY=1;entryDx=0;entryDy=0;" parent="WIyWlLk6GJQsqaUBKTNV-1" source="ex8yVLFD1z92IxYL_h4M-59" target="ex8yVLFD1z92IxYL_h4M-48" edge="1">
          <mxGeometry relative="1" as="geometry" />
        </mxCell>
        <mxCell id="ex8yVLFD1z92IxYL_h4M-63" style="edgeStyle=orthogonalEdgeStyle;rounded=0;orthogonalLoop=1;jettySize=auto;html=1;exitX=1;exitY=1;exitDx=0;exitDy=0;exitPerimeter=0;entryX=0.308;entryY=0.9;entryDx=0;entryDy=0;entryPerimeter=0;" parent="WIyWlLk6GJQsqaUBKTNV-1" source="ex8yVLFD1z92IxYL_h4M-59" target="ex8yVLFD1z92IxYL_h4M-51" edge="1">
          <mxGeometry relative="1" as="geometry" />
        </mxCell>
        <mxCell id="ex8yVLFD1z92IxYL_h4M-59" value="" style="strokeWidth=2;html=1;shape=mxgraph.flowchart.annotation_2;align=left;labelPosition=right;pointerEvents=1;rotation=-90;" parent="WIyWlLk6GJQsqaUBKTNV-1" vertex="1">
          <mxGeometry x="402.5" y="572.5" width="50" height="555" as="geometry" />
        </mxCell>
        <mxCell id="ex8yVLFD1z92IxYL_h4M-60" value="" style="endArrow=none;html=1;rounded=0;entryX=0.408;entryY=1;entryDx=0;entryDy=0;entryPerimeter=0;" parent="WIyWlLk6GJQsqaUBKTNV-1" target="ex8yVLFD1z92IxYL_h4M-49" edge="1">
          <mxGeometry width="50" height="50" relative="1" as="geometry">
            <mxPoint x="321" y="848" as="sourcePoint" />
            <mxPoint x="321" y="820" as="targetPoint" />
          </mxGeometry>
        </mxCell>
        <mxCell id="ex8yVLFD1z92IxYL_h4M-61" value="" style="endArrow=none;html=1;rounded=0;" parent="WIyWlLk6GJQsqaUBKTNV-1" edge="1">
          <mxGeometry width="50" height="50" relative="1" as="geometry">
            <mxPoint x="519" y="850" as="sourcePoint" />
            <mxPoint x="517" y="802" as="targetPoint" />
          </mxGeometry>
        </mxCell>
        <mxCell id="ex8yVLFD1z92IxYL_h4M-64" value="" style="shape=process;whiteSpace=wrap;html=1;backgroundOutline=1;" parent="WIyWlLk6GJQsqaUBKTNV-1" vertex="1">
          <mxGeometry x="490" y="902.5" width="24" height="10" as="geometry" />
        </mxCell>
        <mxCell id="ex8yVLFD1z92IxYL_h4M-65" value="" style="shape=umlActor;verticalLabelPosition=bottom;verticalAlign=top;html=1;outlineConnect=0;" parent="WIyWlLk6GJQsqaUBKTNV-1" vertex="1">
          <mxGeometry x="399" y="470" width="30" height="60" as="geometry" />
        </mxCell>
        <mxCell id="ex8yVLFD1z92IxYL_h4M-66" value="Users" style="shape=umlActor;verticalLabelPosition=bottom;verticalAlign=top;html=1;outlineConnect=0;" parent="WIyWlLk6GJQsqaUBKTNV-1" vertex="1">
          <mxGeometry x="420" y="470" width="30" height="60" as="geometry" />
        </mxCell>
        <mxCell id="ex8yVLFD1z92IxYL_h4M-67" value="" style="shape=umlActor;verticalLabelPosition=bottom;verticalAlign=top;html=1;outlineConnect=0;" parent="WIyWlLk6GJQsqaUBKTNV-1" vertex="1">
          <mxGeometry x="445" y="470" width="30" height="60" as="geometry" />
        </mxCell>
      </root>
    </mxGraphModel>
  </diagram>
  <diagram id="KDqDt7jH1dumQC5omc2z" name="Page-2">
    <mxGraphModel dx="1406" dy="794" grid="1" gridSize="10" guides="1" tooltips="1" connect="1" arrows="1" fold="1" page="1" pageScale="1" pageWidth="850" pageHeight="1100" math="0" shadow="0">
      <root>
        <mxCell id="_rjOat5b2C2wgpJyr-yZ-0" />
        <mxCell id="_rjOat5b2C2wgpJyr-yZ-1" parent="_rjOat5b2C2wgpJyr-yZ-0" />
        <mxCell id="_rjOat5b2C2wgpJyr-yZ-7" style="edgeStyle=orthogonalEdgeStyle;rounded=0;orthogonalLoop=1;jettySize=auto;html=1;entryX=0;entryY=0.5;entryDx=0;entryDy=0;entryPerimeter=0;" edge="1" parent="_rjOat5b2C2wgpJyr-yZ-1" source="_rjOat5b2C2wgpJyr-yZ-2" target="_rjOat5b2C2wgpJyr-yZ-4">
          <mxGeometry relative="1" as="geometry" />
        </mxCell>
        <mxCell id="_rjOat5b2C2wgpJyr-yZ-11" style="edgeStyle=orthogonalEdgeStyle;rounded=0;orthogonalLoop=1;jettySize=auto;html=1;entryX=1;entryY=0.5;entryDx=0;entryDy=0;entryPerimeter=0;" edge="1" parent="_rjOat5b2C2wgpJyr-yZ-1" source="_rjOat5b2C2wgpJyr-yZ-2" target="_rjOat5b2C2wgpJyr-yZ-5">
          <mxGeometry relative="1" as="geometry" />
        </mxCell>
        <mxCell id="_rjOat5b2C2wgpJyr-yZ-2" value="JDBC Connector&amp;nbsp;" style="rounded=0;whiteSpace=wrap;html=1;" vertex="1" parent="_rjOat5b2C2wgpJyr-yZ-1">
          <mxGeometry x="485" y="180" width="130" height="40" as="geometry" />
        </mxCell>
        <mxCell id="_rjOat5b2C2wgpJyr-yZ-8" style="edgeStyle=orthogonalEdgeStyle;rounded=0;orthogonalLoop=1;jettySize=auto;html=1;entryX=0;entryY=0.5;entryDx=0;entryDy=0;entryPerimeter=0;" edge="1" parent="_rjOat5b2C2wgpJyr-yZ-1" source="_rjOat5b2C2wgpJyr-yZ-3" target="_rjOat5b2C2wgpJyr-yZ-5">
          <mxGeometry relative="1" as="geometry" />
        </mxCell>
        <mxCell id="_rjOat5b2C2wgpJyr-yZ-3" value="Account UI" style="ellipse;shape=cloud;whiteSpace=wrap;html=1;" vertex="1" parent="_rjOat5b2C2wgpJyr-yZ-1">
          <mxGeometry x="75" y="160" width="120" height="80" as="geometry" />
        </mxCell>
        <mxCell id="_rjOat5b2C2wgpJyr-yZ-12" style="edgeStyle=orthogonalEdgeStyle;rounded=0;orthogonalLoop=1;jettySize=auto;html=1;entryX=1;entryY=0.5;entryDx=0;entryDy=0;" edge="1" parent="_rjOat5b2C2wgpJyr-yZ-1" source="_rjOat5b2C2wgpJyr-yZ-4" target="_rjOat5b2C2wgpJyr-yZ-2">
          <mxGeometry relative="1" as="geometry" />
        </mxCell>
        <mxCell id="_rjOat5b2C2wgpJyr-yZ-4" value="Account DB" style="strokeWidth=2;html=1;shape=mxgraph.flowchart.database;whiteSpace=wrap;" vertex="1" parent="_rjOat5b2C2wgpJyr-yZ-1">
          <mxGeometry x="705" y="170" width="70" height="60" as="geometry" />
        </mxCell>
        <mxCell id="_rjOat5b2C2wgpJyr-yZ-6" style="edgeStyle=orthogonalEdgeStyle;rounded=0;orthogonalLoop=1;jettySize=auto;html=1;entryX=0;entryY=0.5;entryDx=0;entryDy=0;" edge="1" parent="_rjOat5b2C2wgpJyr-yZ-1" source="_rjOat5b2C2wgpJyr-yZ-5" target="_rjOat5b2C2wgpJyr-yZ-2">
          <mxGeometry relative="1" as="geometry" />
        </mxCell>
        <mxCell id="_rjOat5b2C2wgpJyr-yZ-10" style="edgeStyle=orthogonalEdgeStyle;rounded=0;orthogonalLoop=1;jettySize=auto;html=1;" edge="1" parent="_rjOat5b2C2wgpJyr-yZ-1" source="_rjOat5b2C2wgpJyr-yZ-5" target="_rjOat5b2C2wgpJyr-yZ-3">
          <mxGeometry relative="1" as="geometry" />
        </mxCell>
        <mxCell id="_rjOat5b2C2wgpJyr-yZ-5" value="Account Topic" style="strokeWidth=2;html=1;shape=mxgraph.flowchart.direct_data;whiteSpace=wrap;" vertex="1" parent="_rjOat5b2C2wgpJyr-yZ-1">
          <mxGeometry x="285" y="180" width="100" height="40" as="geometry" />
        </mxCell>
        <mxCell id="_rjOat5b2C2wgpJyr-yZ-13" value="Create Account Service&amp;nbsp;" style="text;html=1;align=center;verticalAlign=middle;resizable=0;points=[];autosize=1;strokeColor=none;fillColor=none;" vertex="1" parent="_rjOat5b2C2wgpJyr-yZ-1">
          <mxGeometry x="90" y="70" width="140" height="20" as="geometry" />
        </mxCell>
        <mxCell id="_rjOat5b2C2wgpJyr-yZ-15" value="Deposit and Withdraw Funds" style="text;html=1;align=center;verticalAlign=middle;resizable=0;points=[];autosize=1;strokeColor=none;fillColor=none;" vertex="1" parent="_rjOat5b2C2wgpJyr-yZ-1">
          <mxGeometry x="90" y="310" width="170" height="20" as="geometry" />
        </mxCell>
        <mxCell id="_rjOat5b2C2wgpJyr-yZ-16" value="User" style="shape=umlActor;verticalLabelPosition=bottom;verticalAlign=top;html=1;outlineConnect=0;" vertex="1" parent="_rjOat5b2C2wgpJyr-yZ-1">
          <mxGeometry x="90" y="380" width="30" height="40" as="geometry" />
        </mxCell>
        <mxCell id="_rjOat5b2C2wgpJyr-yZ-17" value="Deposit Funds" style="rounded=0;whiteSpace=wrap;html=1;" vertex="1" parent="_rjOat5b2C2wgpJyr-yZ-1">
          <mxGeometry x="160" y="370" width="80" height="30" as="geometry" />
        </mxCell>
        <mxCell id="_rjOat5b2C2wgpJyr-yZ-18" value="Withdraw Funds" style="rounded=0;whiteSpace=wrap;html=1;" vertex="1" parent="_rjOat5b2C2wgpJyr-yZ-1">
          <mxGeometry x="160" y="410" width="80" height="30" as="geometry" />
        </mxCell>
        <mxCell id="_rjOat5b2C2wgpJyr-yZ-19" value="" style="strokeWidth=2;html=1;shape=mxgraph.flowchart.annotation_2;align=left;labelPosition=right;pointerEvents=1;" vertex="1" parent="_rjOat5b2C2wgpJyr-yZ-1">
          <mxGeometry x="130" y="385" width="30" height="30" as="geometry" />
        </mxCell>
        <mxCell id="_rjOat5b2C2wgpJyr-yZ-20" value="" style="strokeWidth=2;html=1;shape=mxgraph.flowchart.annotation_2;align=left;labelPosition=right;pointerEvents=1;rotation=-180;" vertex="1" parent="_rjOat5b2C2wgpJyr-yZ-1">
          <mxGeometry x="240" y="390" width="30" height="30" as="geometry" />
        </mxCell>
        <mxCell id="_rjOat5b2C2wgpJyr-yZ-25" style="edgeStyle=orthogonalEdgeStyle;rounded=0;orthogonalLoop=1;jettySize=auto;html=1;" edge="1" parent="_rjOat5b2C2wgpJyr-yZ-1" source="_rjOat5b2C2wgpJyr-yZ-21">
          <mxGeometry relative="1" as="geometry">
            <mxPoint x="390" y="407.5" as="targetPoint" />
          </mxGeometry>
        </mxCell>
        <mxCell id="_rjOat5b2C2wgpJyr-yZ-21" value="UI Service" style="whiteSpace=wrap;html=1;aspect=fixed;" vertex="1" parent="_rjOat5b2C2wgpJyr-yZ-1">
          <mxGeometry x="270" y="375" width="65" height="65" as="geometry" />
        </mxCell>
        <mxCell id="_rjOat5b2C2wgpJyr-yZ-28" style="edgeStyle=orthogonalEdgeStyle;rounded=0;orthogonalLoop=1;jettySize=auto;html=1;" edge="1" parent="_rjOat5b2C2wgpJyr-yZ-1" source="_rjOat5b2C2wgpJyr-yZ-23">
          <mxGeometry relative="1" as="geometry">
            <mxPoint x="550" y="410" as="targetPoint" />
          </mxGeometry>
        </mxCell>
        <mxCell id="_rjOat5b2C2wgpJyr-yZ-23" value="Accounts" style="rounded=0;whiteSpace=wrap;html=1;" vertex="1" parent="_rjOat5b2C2wgpJyr-yZ-1">
          <mxGeometry x="395" y="345" width="120" height="30" as="geometry" />
        </mxCell>
        <mxCell id="_rjOat5b2C2wgpJyr-yZ-24" value="Transaction Service" style="rounded=0;whiteSpace=wrap;html=1;" vertex="1" parent="_rjOat5b2C2wgpJyr-yZ-1">
          <mxGeometry x="395" y="395" width="120" height="30" as="geometry" />
        </mxCell>
        <mxCell id="_rjOat5b2C2wgpJyr-yZ-27" style="edgeStyle=orthogonalEdgeStyle;rounded=0;orthogonalLoop=1;jettySize=auto;html=1;entryX=1;entryY=0.5;entryDx=0;entryDy=0;" edge="1" parent="_rjOat5b2C2wgpJyr-yZ-1" source="_rjOat5b2C2wgpJyr-yZ-26" target="_rjOat5b2C2wgpJyr-yZ-24">
          <mxGeometry relative="1" as="geometry" />
        </mxCell>
        <mxCell id="_rjOat5b2C2wgpJyr-yZ-26" value="Transaction Service" style="rounded=0;whiteSpace=wrap;html=1;" vertex="1" parent="_rjOat5b2C2wgpJyr-yZ-1">
          <mxGeometry x="570" y="395" width="130" height="30" as="geometry" />
        </mxCell>
        <mxCell id="_rjOat5b2C2wgpJyr-yZ-29" value="" style="strokeWidth=2;html=1;shape=mxgraph.flowchart.annotation_2;align=left;labelPosition=right;pointerEvents=1;" vertex="1" parent="_rjOat5b2C2wgpJyr-yZ-1">
          <mxGeometry x="700" y="395" width="30" height="30" as="geometry" />
        </mxCell>
        <mxCell id="_rjOat5b2C2wgpJyr-yZ-31" value="Transaction Service" style="rounded=0;whiteSpace=wrap;html=1;" vertex="1" parent="_rjOat5b2C2wgpJyr-yZ-1">
          <mxGeometry x="730" y="410" width="70" height="30" as="geometry" />
        </mxCell>
        <mxCell id="_rjOat5b2C2wgpJyr-yZ-32" value="Resoued Transaction&amp;nbsp;" style="rounded=0;whiteSpace=wrap;html=1;" vertex="1" parent="_rjOat5b2C2wgpJyr-yZ-1">
          <mxGeometry x="730" y="375" width="70" height="30" as="geometry" />
        </mxCell>
      </root>
    </mxGraphModel>
  </diagram>
</mxfile>
